# xmcd CD database file
#
# Track frame offsets:
#	150
#	5143
#	24654
#	47879
#	71097
#	88310
#	115637
#	143644
#	166690
#	190040
#	207791
#	259410
#	287535
#	305010
#
# Disc length: 4490 seconds
#
# Revision: 0
# Processed by: cddbd v1.5.2PL0 Copyright (c) Steve Scherf et al.
# Submitted via: ACXtractor (MTCDDB.DLL V2003.07.15)
#
DISCID=c711880e
DTITLE=Janky - Them Grackles
DYEAR=2015
DGENRE=Blues
TTITLE0=Yo Ear To Here
TTITLE1=Crazy Ain't No Excuse
TTITLE2=Louisiana Beer Stains
TTITLE3=The Devil Came Betwixt Us
TTITLE4=You A Libertine
TTITLE5=I Believe...
TTITLE6=Them Dogs Are Comin'
TTITLE7=Too Much Jonesin'
TTITLE8=Lord Don't Like It
TTITLE9=Black Water Roots
TTITLE10=My Pops Talks Jukes
TTITLE11=Keep Runnin', MS
TTITLE12=Rev KM Williams Jam
TTITLE13=Gonna Get Up On My Way
EXTD=ID3G:   0 YEAR: 2015
EXTT0=
EXTT1=
EXTT2=
EXTT3=
EXTT4=
EXTT5=
EXTT6=
EXTT7=
EXTT8=
EXTT9=
EXTT10=
EXTT11=
EXTT12=
EXTT13=
PLAYORDER=
